<svg xmlns="http://www.w3.org/2000/svg"  viewBox="0 0 32 32" width="128px" height="128px"><path d="M 7.875 2.0078125 C 7.327 2.0768125 6.9388125 2.5750469 7.0078125 3.1230469 C 7.1255026 4.0711985 7.5874982 6.7917305 9 7.6972656 L 9 10 C 9 10.553 9.447 11 10 11 C 10.553 11 11 10.553 11 10 L 11 7.6972656 C 12.412478 6.7917305 12.873373 4.0711985 12.990234 3.1230469 C 13.059234 2.5750469 12.671047 2.0768125 12.123047 2.0078125 C 11.561047 1.9428125 11.075812 2.329 11.007812 2.875 C 10.850813 4.124 10.426219 5.4566719 10.074219 5.8886719 C 10.036219 5.9356719 9.9637813 5.9356719 9.9257812 5.8886719 C 9.5737812 5.4556719 9.1501875 4.124 8.9921875 2.875 C 8.9241875 2.329 8.437 1.9438125 7.875 2.0078125 z M 15.5 5 C 14.028 5 13 5.7644219 13 6.8574219 L 13 9.1425781 C 13 9.7895781 13.369625 10.349734 14.015625 10.677734 C 14.425625 10.885734 14.952 11 15.5 11 C 16.972 11 18 10.236578 18 9.1425781 L 18 6.8574219 C 18 5.7644219 16.972 5 15.5 5 z M 20.224609 5 C 19.671609 5 19.224609 5.447 19.224609 6 L 19.224609 9.1425781 C 19.224609 9.7895781 19.594234 10.349734 20.240234 10.677734 C 20.650234 10.885734 21.176609 11 21.724609 11 C 23.195609 11 24.224609 10.235578 24.224609 9.1425781 L 24.224609 6 C 24.224609 5.447 23.777609 5 23.224609 5 C 22.671609 5 22.224609 5.447 22.224609 6 L 22.224609 8.9335938 C 21.970609 9.0255938 21.478609 9.0255938 21.224609 8.9335938 L 21.224609 6 C 21.224609 5.447 20.777609 5 20.224609 5 z M 15.5 6.9980469 C 15.6865 6.9980469 15.873 7.0204063 16 7.0664062 L 16 8.9335938 C 15.746 9.0255938 15.254 9.0255938 15 8.9335938 L 15 7.0664062 C 15.127 7.0204063 15.3135 6.9980469 15.5 6.9980469 z M 16.009766 11.998047 C 12.706266 11.998547 9.4001406 12.340438 6.1816406 13.023438 C 5.1626406 13.240438 4.3260938 13.9745 3.9960938 14.9375 C 2.6600938 18.8465 2.6601406 23.154359 3.9941406 27.068359 C 4.3231406 28.035359 5.1625469 28.768375 6.1855469 28.984375 C 9.3845469 29.658375 12.676703 29.996094 15.970703 29.996094 C 19.281703 29.996094 22.592453 29.656562 25.814453 28.976562 C 26.836453 28.760562 27.675906 28.025547 28.003906 27.060547 C 29.339906 23.150547 29.338906 18.846547 28.003906 14.935547 C 27.674906 13.970547 26.837359 13.237484 25.818359 13.021484 C 22.613859 12.339484 19.313266 11.997547 16.009766 11.998047 z M 7 16 L 11 16 C 11.276 16 11.5 16.224 11.5 16.5 C 11.5 16.776 11.276 17 11 17 L 9.5 17 L 9.5 25.5 C 9.5 25.776 9.276 26 9 26 C 8.724 26 8.5 25.776 8.5 25.5 L 8.5 17 L 7 17 C 6.724 17 6.5 16.776 6.5 16.5 C 6.5 16.224 6.724 16 7 16 z M 17 16 C 17.276 16 17.5 16.224 17.5 16.5 L 17.5 19 L 19 19 C 19.827 19 20.5 19.673 20.5 20.5 L 20.5 24.5 C 20.5 25.327 19.827 26 19 26 C 18.435 26 17.919 25.804328 17.5 25.486328 L 17.5 25.5 C 17.5 25.776 17.276 26 17 26 C 16.724 26 16.5 25.776 16.5 25.5 L 16.5 16.5 C 16.5 16.224 16.724 16 17 16 z M 11.5 19 C 11.776 19 12 19.224 12 19.5 L 12 24.5 C 12 24.776 12.225 25 12.5 25 C 13.327 25 14 24.327 14 23.5 L 14 19.5 C 14 19.224 14.224 19 14.5 19 C 14.776 19 15 19.224 15 19.5 L 15 25.5 C 15 25.776 14.776 26 14.5 26 C 14.224 26 14 25.776 14 25.5 L 14 25.486328 C 13.581 25.804328 13.065 26 12.5 26 C 11.673 26 11 25.327 11 24.5 L 11 19.5 C 11 19.224 11.224 19 11.5 19 z M 23.621094 19.001953 C 24.667895 19.065924 25.5 19.93775 25.5 21 L 25.5 22.5 C 25.5 22.776 25.276 23 25 23 L 22.5 23 L 22.5 24 C 22.5 24.551 22.948 25 23.5 25 C 24.023 25 24.359109 24.733594 24.537109 24.308594 C 24.658109 24.020594 24.937156 23.933734 25.160156 24.052734 C 25.355156 24.156734 25.439703 24.446172 25.345703 24.701172 C 25.064703 25.462172 24.415406 25.973047 23.566406 25.998047 C 22.430406 26.032047 21.5 25.029578 21.5 23.892578 L 21.5 21.111328 C 21.5 20.115328 22.177156 19.188391 23.160156 19.025391 C 23.316656 18.999766 23.471551 18.992814 23.621094 19.001953 z M 17.5 20 L 17.5 23.5 C 17.5 24.327 18.173 25 19 25 C 19.275 25 19.5 24.776 19.5 24.5 L 19.5 20.5 C 19.5 20.224 19.275 20 19 20 L 17.5 20 z M 23.5 20 C 22.948 20 22.5 20.449 22.5 21 L 22.5 22 L 24.5 22 L 24.5 21 C 24.5 20.449 24.052 20 23.5 20 z"/></svg>